<svg id="Layer_1" version="1.1" viewBox="0 0 128 128" xml:space="preserve" xmlns="http://www.w3.org/2000/svg" enable-background="new 0 0 128 128"><path d="M67.3 36.5h-6.1c-5.2 0-9.4-4.2-9.4-9.4V19c0-5.2 4.2-9.4 9.4-9.4h6.1c5.2 0 9.4 4.2 9.4 9.4v8.2c0 5.1-4.2 9.3-9.4 9.3zm-6-23.1c-3.1 0-5.6 2.5-5.6 5.6v8.2c0 3.1 2.5 5.6 5.6 5.6h6.1c3.1 0 5.6-2.5 5.6-5.6V19c0-3.1-2.5-5.6-5.6-5.6h-6.1z" fill="#4e2d38" class="fill-581166"></path><path d="M93.4 115.3H35.2c-10.3 0-18.7-8.4-18.7-18.7V84.3c0-10.3 8.4-18.7 18.7-18.7h58.2c10.3 0 18.7 8.4 18.7 18.7v12.4c0 10.2-8.4 18.6-18.7 18.6z" fill="#de332c" class="fill-ff5855"></path><path d="M93.4 117.2H35.2c-11.4 0-20.6-9.2-20.6-20.6V84.3c0-11.4 9.2-20.6 20.6-20.6h58.2c11.4 0 20.6 9.2 20.6 20.6v12.4c0 11.3-9.2 20.5-20.6 20.5zM35.2 67.4c-9.3 0-16.9 7.6-16.9 16.9v12.4c0 9.3 7.6 16.9 16.9 16.9h58.2c9.3 0 16.9-7.6 16.9-16.9V84.3c0-9.3-7.6-16.9-16.9-16.9H35.2z" fill="#4e2d38" class="fill-581166"></path><path d="M111.6 82H17.1c-1 0-1.9-.8-1.9-1.9 0-1 .8-1.9 1.9-1.9h94.5c1 0 1.9.8 1.9 1.9-.1 1.1-.9 1.9-1.9 1.9z" fill="#4e2d38" class="fill-581166"></path><path d="M99.3 38.2v69.1c0 9.9-8.1 8.1-17.9 8.1H47.2c-9.9 0-17.9-8.1-17.9-17.9V38.2c0-6.9 4-13 9.8-16 2.4-1.3 5.2-2 8.1-2h34.2c2.9 0 5.7.7 8.1 2 5.8 3 9.8 9.1 9.8 16z" fill="#de332c" class="fill-ff5855"></path><g opacity=".5"><path d="M89.5 25.6v20.7c0 3.9-3.2 7.2-7.2 7.2h-36c-3.9 0-7.2-3.2-7.2-7.2V25.6c2.4-1.3 5.2-2 8.1-2h34.2c2.9.1 5.7.8 8.1 2z" fill="#4e2d38" class="fill-581166"></path></g><g opacity=".5"><path d="M87.5 110.5H41.1c-2.2 0-4-1.8-4-4V83.8c0-2.2 1.8-4 4-4h46.4c2.2 0 4 1.8 4 4v22.7c0 2.2-1.8 4-4 4z" fill="#4e2d38" class="fill-581166"></path></g><path d="M89.1 117.4c-1.2 0-2.5 0-3.8-.1-1.4 0-2.8-.1-4.2-.1h-37c-6.1.1-11.3.1-14.4-3-1.8-1.7-2.6-4.2-2.6-7.6V38.2c0-10.9 8.9-19.8 19.8-19.8H81c10.9 0 19.8 8.9 19.8 19.8l.8 69.2c0 3.2-.8 5.6-2.5 7.2-2.4 2.3-5.9 2.8-10 2.8zm-42.3-3.9H81c1.5 0 2.9 0 4.3.1 4.9.1 9.2.3 11.1-1.6.9-.9 1.4-2.4 1.4-4.5L97 38.3c0-8.9-7.2-16.1-16-16.1H46.8c-8.8 0-16 7.2-16 16v68.4c0 2.3.5 4 1.5 5 2 2 6.5 2 11.8 1.9h2.7z" fill="#4e2d38" class="fill-581166"></path><path d="M87.5 106.5H41.1c-2.2 0-4-1.8-4-4V79.8c0-2.2 1.8-4 4-4h46.4c2.2 0 4 1.8 4 4v22.7c0 2.2-1.8 4-4 4z" fill="#de332c" class="fill-ffda8e"></path><path d="M84 108.4H44.6c-5.2 0-9.4-4.2-9.4-9.4V83.3c0-5.2 4.2-9.4 9.4-9.4H84c5.2 0 9.4 4.2 9.4 9.4V99c0 5.2-4.2 9.4-9.4 9.4zM44.6 77.7c-3.1 0-5.6 2.5-5.6 5.6V99c0 3.1 2.5 5.6 5.6 5.6H84c3.1 0 5.6-2.5 5.6-5.6V83.3c0-3.1-2.5-5.6-5.6-5.6H44.6z" fill="#4e2d38" class="fill-581166"></path><path d="M91.5 87.1H37.1c-1 0-1.9-.8-1.9-1.9s.8-1.9 1.9-1.9h54.4c1 0 1.9.8 1.9 1.9s-.8 1.9-1.9 1.9z" fill="#4e2d38" class="fill-581166"></path><path d="M111.6 80.9v19.3h-.6c-3.7 0-6.7-3-6.7-6.7V81.7c0-.3 0-.5.1-.8h7.2z" fill="#de332c" class="fill-ffda8e"></path><path d="M111 102.1c-4.7 0-8.6-3.8-8.6-8.6V81.7c0-.3 0-.6.1-1 .1-.9.9-1.7 1.9-1.7h7.2c1 0 1.9.8 1.9 1.9v19.3c0 .9-.6 1.7-1.5 1.8-.4.1-.7.1-1 .1zm-4.8-19.3v10.8c0 2.2 1.5 4.1 3.5 4.6V82.8h-3.5z" fill="#4e2d38" class="fill-581166"></path><path d="M17.1 80.4v19.3h.6c3.7 0 6.7-3 6.7-6.7V81.3c0-.3 0-.5-.1-.8h-7.2z" fill="#de332c" class="fill-ffda8e"></path><path d="M17.6 101.7c-.3 0-.6 0-.9-.1-.9-.2-1.5-.9-1.5-1.8V80.4c0-1 .8-1.9 1.9-1.9h7.2c.9 0 1.7.7 1.9 1.6.1.4.1.7.1 1.1v11.9c-.1 4.8-4 8.6-8.7 8.6zm1.3-19.4v15.5c2-.6 3.5-2.4 3.5-4.6V82.3h-3.5z" fill="#4e2d38" class="fill-581166"></path><path d="M47.3 50.1h6.9v18.4h-6.9zM74.5 50.1h6.9v18.4h-6.9z" fill="#de332c" class="fill-ffda8e"></path><path d="M54.2 70.4h-6.9c-1 0-1.9-.8-1.9-1.9V50.1c0-1 .8-1.9 1.9-1.9h6.9c1 0 1.9.8 1.9 1.9v18.4c-.1 1-.9 1.9-1.9 1.9zm-5-3.8h3.1V52h-3.1v14.6zM81.3 70.4h-6.9c-1 0-1.9-.8-1.9-1.9V50.1c0-1 .8-1.9 1.9-1.9h6.9c1 0 1.9.8 1.9 1.9v18.4c0 1-.8 1.9-1.9 1.9zm-5-3.8h3.1V52h-3.1v14.6z" fill="#4e2d38" class="fill-581166"></path><path d="M84.4 64.6h-13c-1 0-1.9-.8-1.9-1.9v-5.6c0-1 .8-1.9 1.9-1.9h12.9c1 0 1.9.8 1.9 1.9v5.6c0 1-.8 1.9-1.8 1.9zm-11.1-3.8h9.2V59h-9.2v1.8z" fill="#4e2d38" class="fill-581166"></path><path d="M71.4 56.8h12.9v5.6H71.4z" fill="#ffffff" class="fill-ffffff"></path><path d="M84.4 64.3h-13c-1 0-1.9-.8-1.9-1.9v-5.6c0-1 .8-1.9 1.9-1.9h12.9c1 0 1.9.8 1.9 1.9v5.6c0 1-.8 1.9-1.8 1.9zm-11.1-3.8h9.2v-1.9h-9.2v1.9z" fill="#4e2d38" class="fill-581166"></path><path d="M44.3 56.8h12.9v5.6H44.3z" fill="#ffffff" class="fill-ffffff"></path><path d="M57.2 64.3H44.3c-1 0-1.9-.8-1.9-1.9v-5.6c0-1 .8-1.9 1.9-1.9h12.9c1 0 1.9.8 1.9 1.9v5.6c0 1-.9 1.9-1.9 1.9zm-11.1-3.8h9.2v-1.9h-9.2v1.9z" fill="#4e2d38" class="fill-581166"></path><path d="M89.5 22.2V43c0 3.9-3.2 7.2-7.2 7.2h-36c-3.9 0-7.2-3.2-7.2-7.2V22.2c2.4-1.3 5.2-2 8.1-2h34.2c2.9.1 5.7.8 8.1 2z" fill="#de332c" class="fill-ff5855"></path><path d="M82.4 52H46.3c-5 0-9-4.1-9-9V22.2c0-.7.4-1.3 1-1.7 2.8-1.4 5.8-2.2 9-2.2h34.2c3.2 0 6.2.7 9 2.2.6.3 1 1 1 1.7V43c-.1 5-4.1 9-9.1 9zM41 23.4V43c0 2.9 2.4 5.3 5.3 5.3h36.1c2.9 0 5.3-2.4 5.3-5.3V23.4c-2-.8-4.1-1.3-6.2-1.3H47.2c-2.2.1-4.3.5-6.2 1.3z" fill="#4e2d38" class="fill-581166"></path><g opacity=".5"><path d="M99.7 67.9h3.9v44.4h-3.9z" fill="#4e2d38" class="fill-581166"></path></g><g opacity=".5"><path d="M25.4 68.9h3.9v44.4h-3.9z" fill="#4e2d38" class="fill-581166"></path></g></svg>