<svg viewBox="0 0 32 32" xml:space="preserve" xmlns="http://www.w3.org/2000/svg"><circle cx="16" cy="16" fill="#FFFFFF" r="14.5" class="fill-ffffff"></circle><path d="M30.5 16c0-1.339-.196-2.631-.536-3.862C27.83 6.787 22.612 3 16.5 3 8.492 3 2 9.492 2 17.5c0 1.339.196 2.631.536 3.862C4.67 26.713 9.888 30.5 16 30.5c8.008 0 14.5-6.492 14.5-14.5z" fill="#e67637" class="fill-f48fb1"></path><path d="M15.737 31C7.474 31 1 24.411 1 16c0-3.629 1.238-7.111 3.485-9.804a.5.5 0 0 1 .768.641C3.155 9.35 2 12.604 2 16c0 7.851 6.034 14 13.737 14C23.602 30 30 23.72 30 16S23.602 2 15.737 2c-2.441 0-4.812.62-6.857 1.791a.5.5 0 1 1-.497-.867C10.579 1.665 13.122 1 15.737 1 24.153 1 31 7.729 31 16s-6.847 15-15.263 15z" fill="#455A64" class="fill-455a64"></path><path d="M7.543 4.552c0 .275-.225.5-.5.5a.501.501 0 0 1-.5-.5.5.5 0 0 1 1 0zM3.555 15.122c-.654 0-1.32-.013-2.003-.038a.499.499 0 0 1-.481-.518.492.492 0 0 1 .518-.481c5.316.194 9.596-.36 15.278-1.967 5.118-1.448 8.737-6.283 8.773-6.332a.5.5 0 0 1 .805.594c-.155.21-3.862 5.16-9.305 6.7-5.064 1.432-9.04 2.042-13.585 2.042zM6.682 27.6a.5.5 0 0 1-.473-.662c1.188-3.465 6.325-9.292 12.505-10.765 4.296-1.025 9.745-.237 11.946 1.112a.5.5 0 1 1-.523.853c-2.03-1.242-7.248-1.931-11.192-.992-5.614 1.338-10.651 6.794-11.79 10.116a.5.5 0 0 1-.473.338z" fill="#455A64" class="fill-455a64"></path><path d="M22.049 28.876a.5.5 0 0 1-.495-.434c-1.313-9.784-5.933-19.631-9.615-23.93a.5.5 0 1 1 .76-.65c3.13 3.655 8.335 13.182 9.846 24.448a.5.5 0 0 1-.496.566z" fill="#455A64" class="fill-455a64"></path></svg>